<?xml version="1.0"?>
<svg xmlns="http://www.w3.org/2000/svg" width="500" height="500">

 <g>
  <title>Memoriaal.ee logo</title>
  
  <rect id="post1" height="500" width="15" y="0" x="200" stroke-width="0"
    fill="#444"/>
  <rect id="post2" height="500" width="15" y="0" x="400" stroke-width="0"
    fill="#444"/>
  <rect id="aken1" height="15" width="10" y="250" x="300" stroke-width="0"
    fill="#ddd"/>
  <rect id="aken2" height="15" width="10" y="265" x="300" stroke-width="0"
    fill="#222"/>

  <polygon id="v1" points="215,0 300,250 300,265 215,100" stroke-width="0"
    fill="#777"/>
  <polygon id="v2" points="215,100 300,265 300,280 215,500" stroke-width="0"
    fill="#555"/>
  <polygon id="p1" points="310,250 400,0 400,500 310,280" stroke-width="0"
    fill="#555"/>
  <polygon id="tee" points="215,500 300,280 310,280 400,500" stroke-width="0"
    fill="#777"/>
  <polygon id="trepp" points="415,240 500,480 415,480" stroke-width="0"
    fill="#999"/>
  <polygon id="vari" points="200,240 200,480 0,480" stroke-width="0"
    fill="#111"/>

 </g>
</svg>
