<?xml version="1.0"?>
<svg xmlns="http://www.w3.org/2000/svg" width="215" height="500">

  <defs>
    <linearGradient id="post" x1="0%" y1="0%" x2="0%" y2="100%">
      <stop offset="0%" style="stop-color:rgb(60,60,60);stop-opacity:1" />
      <stop offset="100%" style="stop-color:rgb(20,20,20);stop-opacity:1" />
    </linearGradient>
    <linearGradient id="vp1" x1="0%" y1="0%" x2="0%" y2="100%">
      <stop offset="0%" style="stop-color:rgb(150,150,150);stop-opacity:1" />
      <stop offset="100%" style="stop-color:rgb(90,90,90);stop-opacity:1" />
    </linearGradient>
    <linearGradient id="vp2" x1="0%" y1="0%" x2="0%" y2="100%">
      <stop offset="0%" style="stop-color:rgb(110,110,110);stop-opacity:1" />
      <stop offset="100%" style="stop-color:rgb(40,40,40);stop-opacity:1" />
    </linearGradient>
  </defs>
  <g>
    <title>Memoriaal.ee logo</title>

    <rect id="post1" stroke-width="0"
      height="500" width="15" x="0"   y="0"
      fill="url(#post)"/>
    <rect id="post2" stroke-width="0"
      height="500" width="15" x="200" y="0"
      fill="url(#post)"/>
    <rect id="aken1" stroke-width="0"
      height="15"  width="10" x="100" y="350"
      fill="#ddd"/>
    <rect id="aken2" stroke-width="0"
      height="15"  width="10" x="100" y="365"
      fill="#222"/>

    <polygon stroke-width="0" id="v1"    fill="url(#vp1)"
      points=" 15,0    100,350  100,365   15,100"/>
    <polygon stroke-width="0" id="v2"    fill="url(#vp2)"
      points=" 15,100  100,365  100,380   15,500"/>
    <polygon stroke-width="0" id="p2"    fill="url(#vp2)"
      points="110,350  200,0    200,500  110,380"/>
    <polygon stroke-width="0" id="tee"   fill="#666"
      points=" 15,500  100,380  110,380  200,500"/>

  </g>
</svg>
